<svg xmlns="http://www.w3.org/2000/svg" width="12" height="12" viewBox="0 0 12 12"><g><g opacity=".49"><g opacity=".49"><path fill="none" stroke="#d8d6d6" stroke-miterlimit="20" d="M1.8 10.394v0-4.85c0-.215.062-.424.177-.613.545-.887 2.272-3.448 4.096-3.513"/></g><g opacity=".49"><path fill="none" stroke="#d8d6d6" stroke-miterlimit="20" d="M10.348 10.394v0-4.85c0-.215-.061-.424-.177-.613-.545-.887-2.272-3.448-4.094-3.513"/></g><g opacity=".49"><path fill="#d8d6d6" d="M10.743 10.993H1.126a.61.61 0 0 1-.615-.6.61.61 0 0 1 .615-.603h9.617a.61.61 0 0 1 .615.602.61.61 0 0 1-.615.601"/></g><g opacity=".49"><path fill="#d8d6d6" d="M6.407 11.956H5.46a.609.609 0 0 1-.613-.6v-.084c0-.33.276-.6.613-.6h.946a.61.61 0 0 1 .614.6v.083a.61.61 0 0 1-.614.601"/></g></g></g></svg>