<svg xmlns="http://www.w3.org/2000/svg" width="17" height="17" viewBox="0 0 17 17"><defs><mask id="y3gub" width="2" height="2" x="-1" y="-1"><path fill="#fff" d="M2 1h13v13H2z"/><path d="M13.632 13.93H3.798c-.716 0-1.298-.58-1.298-1.298V2.3a.8.8 0 0 1 .8-.8h10.332c.717 0 1.298.58 1.298 1.298v9.834c0 .717-.58 1.298-1.298 1.298z"/></mask><filter id="y3gua" width="35" height="36" x="-9" y="-10" filterUnits="userSpaceOnUse"><feOffset dy="1" in="SourceGraphic" result="FeOffset1025Out"/><feGaussianBlur in="FeOffset1025Out" result="FeGaussianBlur1026Out" stdDeviation="0.4 0.4"/></filter><filter id="y3guc" width="29" height="25" x="-6" y="-5" filterUnits="userSpaceOnUse"><feOffset dy="1" in="SourceGraphic" result="FeOffset1040Out"/><feGaussianBlur in="FeOffset1040Out" result="FeGaussianBlur1041Out" stdDeviation="0.4 0.4"/></filter><filter id="y3gud" width="26" height="25" x="-2" y="-2" filterUnits="userSpaceOnUse"><feOffset dy="1" in="SourceGraphic" result="FeOffset1055Out"/><feGaussianBlur in="FeOffset1055Out" result="FeGaussianBlur1056Out" stdDeviation="0.4 0.4"/></filter><filter id="y3gue" width="25" height="25" x="-7" y="-8" filterUnits="userSpaceOnUse"><feOffset dy="1" in="SourceGraphic" result="FeOffset1070Out"/><feGaussianBlur in="FeOffset1070Out" result="FeGaussianBlur1071Out" stdDeviation="0.4 0.4"/></filter></defs><g><g><g><g filter="url(#y3gua)"><path fill="none" d="M13.632 13.93H3.798c-.716 0-1.298-.58-1.298-1.298V2.3a.8.8 0 0 1 .8-.8h10.332c.717 0 1.298.58 1.298 1.298v9.834c0 .717-.58 1.298-1.298 1.298z" mask="url(&quot;#y3gub&quot;)"/><path fill-opacity=".5" d="M13.632 13.93H3.798c-.716 0-1.298-.58-1.298-1.298V2.3a.8.8 0 0 1 .8-.8h10.332c.717 0 1.298.58 1.298 1.298v9.834c0 .717-.58 1.298-1.298 1.298z"/></g><path fill="none" stroke="#fff" stroke-miterlimit="20" stroke-width="1.5" d="M13.632 13.93H3.798c-.716 0-1.298-.58-1.298-1.298V2.3a.8.8 0 0 1 .8-.8h10.332c.717 0 1.298.58 1.298 1.298v9.834c0 .717-.58 1.298-1.298 1.298z"/></g><g><g filter="url(#y3guc)"><path fill="none" d="M11.023 7.38H6.254a.606.606 0 0 1 0-1.21h4.77a.606.606 0 0 1 0 1.21"/></g><path fill="#fff" d="M11.023 7.38H6.254a.606.606 0 0 1 0-1.21h4.77a.606.606 0 0 1 0 1.21"/></g><g><g filter="url(#y3gud)"><path fill="none" d="M12.001 10.38H9.976a.607.607 0 0 1-.606-.604c0-.333.273-.606.606-.606H12c.333 0 .606.273.606.606a.607.607 0 0 1-.606.604"/></g><path fill="#fff" d="M12.001 10.38H9.976a.607.607 0 0 1-.606-.604c0-.333.273-.606.606-.606H12c.333 0 .606.273.606.606a.607.607 0 0 1-.606.604"/></g><g><g filter="url(#y3gue)"><path fill="none" d="M5.855 4.71h-.99a.606.606 0 0 1 0-1.21h.99c.332 0 .605.272.605.605a.607.607 0 0 1-.605.605"/></g><path fill="#fff" d="M5.855 4.71h-.99a.606.606 0 0 1 0-1.21h.99c.332 0 .605.272.605.605a.607.607 0 0 1-.605.605"/></g></g></g></svg>