<svg xmlns="http://www.w3.org/2000/svg" width="11" height="10" viewBox="0 0 11 10"><defs><clipPath id="wma5a"><path d="M.848 0h9.96v10H.849z"/></clipPath></defs><g><g><g/><g clip-path="url(#wma5a)"><path fill="#fefefe" d="M5.827 9.997c-1.555 0-3.11-.003-4.664.003-.247.001-.315-.14-.315-.315.002-3.122 0-6.245 0-9.368 0-.023 0-.047.003-.07.014-.16.102-.244.263-.245l.862-.001C4.194.001 6.412.002 8.631 0c.12 0 .208.033.294.12.585.59 1.174 1.177 1.765 1.763a.38.38 0 0 1 .119.287l-.001 7.518c0 .227-.082.309-.308.309zM2.725 9.52V4.96c0-.229.076-.305.307-.305H8.62c.236 0 .312.074.312.308v4.554h1.395c0-.025.003-.043.003-.06 0-2.4.001-4.797-.002-7.196a.165.165 0 0 0-.045-.108c-.541-.545-1.085-1.09-1.63-1.63a.186.186 0 0 0-.118-.046C8.23.473 7.926.475 7.622.475c-.027 0-.053.003-.088.004v.11l-.001 2.093c0 .21-.083.296-.292.296H3.016c-.21 0-.291-.083-.291-.295V.481H1.332v9.04zm.482-.002H8.45V5.133H3.207zm-.003-7.024h3.845V.48H3.204z"/></g><g clip-path="url(#wma5a)"><path fill="#fefefe" d="M5.828 6.736H4.163c-.235 0-.38-.149-.31-.314.044-.098.147-.157.289-.158.211-.002.423 0 .634 0h2.716c.238 0 .386.158.307.322-.047.098-.153.15-.318.15H5.828"/></g><g clip-path="url(#wma5a)"><path fill="#fefefe" d="M5.83 7.733H4.13c-.14 0-.24-.062-.28-.163-.038-.098-.002-.202.104-.258a.395.395 0 0 1 .174-.044c1.132-.003 2.264-.003 3.396 0 .17 0 .295.101.295.231.002.131-.127.234-.304.234H5.83"/></g></g></g></svg>