<svg xmlns="http://www.w3.org/2000/svg" width="14" height="14" viewBox="0 0 14 14"><g><g><g><path fill="#d8d8d8" d="M.722 1.646a1 1 0 0 1 1-1h.998a1 1 0 0 1 1 1v.937a1 1 0 0 1-1 1h-.998a1 1 0 0 1-1-1z"/></g><g><path fill="#d8d8d8" d="M5.718 1.646a1 1 0 0 1 1-1h.998a1 1 0 0 1 1 1v.937a1 1 0 0 1-1 1h-.998a1 1 0 0 1-1-1z"/></g><g><path fill="#d8d8d8" d="M10.714 1.646a1 1 0 0 1 1-1h.998a1 1 0 0 1 1 1v.937a1 1 0 0 1-1 1h-.998a1 1 0 0 1-1-1z"/></g><g><path fill="#d8d8d8" d="M.722 6.542a1 1 0 0 1 1-1h.998a1 1 0 0 1 1 1v.937a1 1 0 0 1-1 1h-.998a1 1 0 0 1-1-1z"/></g><g><path fill="#d8d8d8" d="M5.718 6.542a1 1 0 0 1 1-1h.998a1 1 0 0 1 1 1v.937a1 1 0 0 1-1 1h-.998a1 1 0 0 1-1-1z"/></g><g><path fill="#d8d8d8" d="M10.714 6.542a1 1 0 0 1 1-1h.998a1 1 0 0 1 1 1v.937a1 1 0 0 1-1 1h-.998a1 1 0 0 1-1-1z"/></g><g><path fill="#d8d8d8" d="M.722 11.438a1 1 0 0 1 1-1h.998a1 1 0 0 1 1 1v.937a1 1 0 0 1-1 1h-.998a1 1 0 0 1-1-1z"/></g><g><path fill="#d8d8d8" d="M5.718 11.438a1 1 0 0 1 1-1h.998a1 1 0 0 1 1 1v.937a1 1 0 0 1-1 1h-.998a1 1 0 0 1-1-1z"/></g><g><path fill="#d8d8d8" d="M10.714 11.438a1 1 0 0 1 1-1h.998a1 1 0 0 1 1 1v.937a1 1 0 0 1-1 1h-.998a1 1 0 0 1-1-1z"/></g></g></g></svg>