<svg xmlns="http://www.w3.org/2000/svg" width="27" height="27" viewBox="0 0 27 27"><defs><clipPath id="nneja"><path d="M12.183.818h14.655v3.964H12.183z"/></clipPath></defs><g><g opacity=".82"><g opacity=".82"><g opacity=".82"><path fill="#fff" d="M24.29 21.843c-.114-.025-.207-.043-.299-.065-1.998-.485-3.898-1.203-5.668-2.229a13.485 13.485 0 0 1-2.36-1.715 12.23 12.23 0 0 1-.875-.896c-.053-.06-.066-.11-.036-.187.17-.445.24-.906.22-1.38a3.574 3.574 0 0 0-1.012-2.367 3.83 3.83 0 0 0-1.987-1.115c-.023-.005-.046-.011-.076-.02v-1.282c.027.004.054.004.08.012 1.256.389 2.493.826 3.683 1.38 1.126.526 2.198 1.136 3.17 1.904a12.83 12.83 0 0 1 2.011 2.026 17.686 17.686 0 0 1 3.084 5.71c.022.065.04.133.066.224"/></g><g opacity=".82"><path fill="#fff" d="M10.71 17.579c-1.114-.406-1.702-1.476-1.467-2.533.229-1.027 1.147-1.744 2.226-1.75 1.067-.005 1.991.702 2.238 1.707.252 1.029-.302 2.158-1.47 2.58v.11c0 .76.002 1.52-.002 2.28 0 .085.028.132.103.174.333.19.64.414.9.693.064.068.125.141.182.216.332.438.428.916.27 1.442a6.45 6.45 0 0 1-.56 1.257 16.824 16.824 0 0 1-1.007 1.57c-.188.266-.378.53-.568.795l-.073.095c-.016-.016-.028-.026-.037-.038-.455-.638-.925-1.267-1.332-1.936-.276-.451-.534-.91-.727-1.401a2.756 2.756 0 0 1-.18-.65c-.053-.405.068-.766.305-1.097.212-.297.485-.535.788-.743.114-.078.233-.15.352-.222.046-.027.069-.055.069-.11-.003-.803-.003-1.605-.003-2.408 0-.008-.004-.015-.008-.031"/></g><g opacity=".82"><g opacity=".82"/><g clip-path="url(#nneja)" opacity=".82"><path fill="#fff" d="M26.838 3.099c-.093.053-.16.095-.23.132-.961.511-1.967.921-3.008 1.254-.315.1-.636.186-.953.282a.303.303 0 0 1-.23-.018 16.395 16.395 0 0 0-2.613-.926 11.151 11.151 0 0 0-1.568-.289 43.06 43.06 0 0 0-1.818-.176c-.963-.068-1.93-.092-2.894-.015-.4.031-.797.077-1.196.116-.04.004-.079.005-.117.008-.028-.085-.04-2.052-.013-2.29a25.24 25.24 0 0 1 6.184-.285c2.949.225 5.764.936 8.456 2.207"/></g></g><g opacity=".82"><path fill="#fff" d="M12.193 5.928V4.77c.032-.007.065-.018.099-.023a17.703 17.703 0 0 1 3.26-.16c1.038.042 2.071.125 3.095.3.7.12 1.377.326 2.04.57 1.67.616 3.186 1.49 4.573 2.574.355.277.687.582 1.03.874.032.028.06.06.107.105-.08.024-.142.046-.206.062-.492.126-.991.22-1.494.294-.71.106-1.423.168-2.14.194a.364.364 0 0 1-.26-.087 14.296 14.296 0 0 0-2.498-1.628 15.59 15.59 0 0 0-2.78-1.055 22.686 22.686 0 0 0-2.955-.629c-.574-.082-1.151-.143-1.727-.214-.044-.005-.087-.012-.144-.02"/></g><g opacity=".82"><path fill="#fff" d="M12.195 9.03V7.449c.1.009.19.015.281.024 1.252.135 2.491.336 3.71.649.99.254 1.955.573 2.87 1.021.797.39 1.535.87 2.231 1.41a17.15 17.15 0 0 1 3.895 4.241l.099.161c-.037.005-.058.011-.08.01-.292-.011-.584-.015-.876-.038a17.493 17.493 0 0 1-1.868-.246c-.134-.025-.284-.025-.396-.087-.112-.062-.187-.187-.276-.286a16.627 16.627 0 0 0-5.25-3.914 16.44 16.44 0 0 0-3.95-1.291c-.13-.025-.259-.047-.39-.071"/></g><g opacity=".82"><path fill="#fff" d="M4.982 3.666a22.886 22.886 0 0 1 5.696-2.152c.013.006.017.007.02.01.003.002.006.006.006.01l.006 7.512c0 .018-.002.036-.004.05-.01.006-.013.009-.017.01-.003 0-.008-.002-.01-.004-.017-.012-.033-.023-.047-.037L4.994 3.698c-.005-.004-.005-.013-.012-.032"/></g><g opacity=".82"><path fill="#fff" d="M6.113 6.759l4.517 4.43-.007.018c-.002.003-.005.007-.008.007l-4.412.005c-.027 0-.055-.004-.09-.007z"/></g><g opacity=".82"><path fill="#fff" d="M1.254 8.149h3.463v3.513l-.008.004c-.003.001-.008.002-.01 0L1.284 8.195c-.01-.01-.016-.024-.03-.046"/></g><g opacity=".82"><path fill="#fff" d="M.883 6.64a18.672 18.672 0 0 1 2.746-2.178l2.268 2.207c.005-.02.005-.016.003-.013-.001.003-.005.008-.007.008l-4.892.004H.896L.883 6.64"/></g><g opacity=".82"><path fill="#fff" d="M6.132 12.502h3.096a4.787 4.787 0 0 0-.916.893c-.26.343-.439.726-.59 1.133-.032-.027-.059-.049-.084-.073-.478-.463-.955-.928-1.435-1.39a.21.21 0 0 1-.073-.174c.005-.127.002-.254.002-.389"/></g></g></g></g></svg>